<?xml version="1.0" encoding="UTF-8" standalone="no"?>
<!-- Created with Inkscape (http://www.inkscape.org/) -->

<svg
   version="1.1"
   id="svg2"
   width="148.00133"
   height="148.99998"
   viewBox="0 0 148.00133 148.99998"
   xmlns="http://www.w3.org/2000/svg"
   xmlns:svg="http://www.w3.org/2000/svg">
  <defs
     id="defs6" />
  <g
     id="g8"
     transform="matrix(1.3333333,0,0,1.3333333,0,3.725e-6)">
    <g
       id="g10">
      <path
         d="M 56.543,74.316 H 54.457 V 51 c -0.141,-1.5 -0.418,-2.863 -2.504,-3 -1.394,0 -2.648,0.953 -2.648,3 -0.133,6.953 -0.274,13.91 -0.414,20.863 -0.141,4.223 1.945,7.637 6.543,7.637 4.73,0 6.816,-3.414 6.675,-7.637 C 61.973,64.906 61.828,57.953 61.551,51 c 0,-2.047 -1.11,-3 -2.637,-3 -2.094,0.137 -2.371,1.5 -2.371,3 z"
         style="fill:#b92917;fill-opacity:1;fill-rule:evenodd;stroke:none"
         id="path12" />
      <path
         d="m 12.996,37.207 c -0.133,0.145 -0.531,-0.133 -0.937,0 -0.258,0.195 -0.485,0.426 -0.672,0.691 -0.137,0.27 0,0.961 0.808,1.5 1.207,0.622 2.543,0.954 3.899,0.961 0.543,-0.136 0.945,-1.238 0.543,-1.238 -0.543,-0.137 -1.614,-0.414 -1.883,-0.961 -0.699,-0.996 -0.988,-2.219 -0.813,-3.422 -0.078,-1.172 0.258,-2.336 0.946,-3.289 0.261,-0.094 0.551,0.028 0.668,0.278 0.136,0.132 0.675,1.777 0.808,1.91 0,0 0,0.554 -0.402,0.277 -0.27,-0.133 -0.676,-0.277 -0.938,0 -0.406,0.137 -0.675,0.547 -0.269,0.961 0.285,0.27 0.691,0.371 1.07,0.277 0.137,-0.14 0.676,-0.277 0.539,0 -0.097,0.403 -0.14,0.817 -0.133,1.231 0,0 -0.406,0.547 0,0.816 0.407,0.27 1.079,0.278 1.079,0 v -1.633 c 0.101,-0.527 0.281,-1.031 0.535,-1.5 0.402,-0.136 0.672,0 1.215,-0.269 0.531,-0.477 0.906,-1.098 1.078,-1.785 0.09,-1.164 0.316,-2.313 0.668,-3.422 0.269,-0.414 0.945,-0.692 0.269,-1.371 -0.676,-0.684 -3.359,-0.961 -4.711,0.133 -1.375,1.16 -2.398,2.679 -2.961,4.386 -0.675,1.914 -0.8,3 -0.539,3.977 0.27,1.094 0.403,1.363 0.133,1.5 z m 4.18,-3.562 c 0,0 -0.137,0 -0.27,0.277 V 31.59 c 0,-0.684 -0.543,-0.684 -0.945,-0.547 h -0.805 c 0.266,-0.547 0.535,-0.961 0.938,-1.645 0.484,-0.918 1.39,-1.535 2.422,-1.648 0.543,-0.137 0.273,1.785 0.136,2.324 0.028,0.781 -0.019,1.563 -0.136,2.332 0,0.414 -0.27,0.278 -0.801,0.414 -0.406,0.18 -0.539,0.825 -0.539,0.825 z"
         style="fill:#b92917;fill-opacity:1;fill-rule:evenodd;stroke:none"
         id="path14" />
      <path
         d="m 34.254,13.012 c -0.375,0.136 -0.504,0.398 -0.258,1.066 0.375,0.524 0.75,0.391 1.008,1.582 0.375,1.059 0.996,3.309 1.125,3.703 0.094,0.438 0.133,0.883 0.117,1.328 0,0.262 0.129,1.059 0.633,0.922 0.621,-0.125 0.375,-0.785 0.246,-1.191 C 36.906,19.16 36.574,17.918 36.129,16.719 36,16.328 35.625,15.137 35.496,14.738 35.551,14.305 35.414,13.867 35.121,13.547 34.875,13.281 34.629,12.75 34.254,13.012 Z"
         style="fill:#b92917;fill-opacity:1;fill-rule:evenodd;stroke:none"
         id="path16" />
      <path
         d="m 37.176,12.137 c -0.207,0.133 -0.426,0.133 -0.426,0.539 0.07,0.383 0.219,0.746 0.426,1.07 0.219,0.246 0.398,0.52 0.543,0.813 0.144,0.89 0.433,1.757 0.855,2.554 C 38.781,17.25 39,16.844 39,16.305 c 0.004,-0.508 -0.066,-1.016 -0.219,-1.5 -0.238,-0.254 -0.351,-0.598 -0.312,-0.946 -0.059,-0.535 -0.242,-1.05 -0.543,-1.5 -0.176,-0.222 -0.477,-0.312 -0.75,-0.222 z"
         style="fill:#b92917;fill-opacity:1;fill-rule:evenodd;stroke:none"
         id="path18" />
      <path
         d="m 39.141,7.5 c -0.297,0 -0.579,0.148 -0.75,0.398 -0.125,0.36 0.039,0.758 0.382,0.922 0.247,0.309 0.422,0.668 0.512,1.051 0.129,0.27 1.274,2.902 1.5,3.563 0.227,0.66 0.75,2.105 1.156,2.902 0.383,0.922 1.02,2.504 1.5,2.902 0.508,0.262 0.75,-0.66 0.383,-1.058 -0.258,-0.399 -0.258,-0.262 -0.75,-1.051 C 42.75,16.336 40.926,12 40.801,11.723 40.57,11.035 40.398,10.324 40.289,9.609 c 0,-0.527 0.258,-1.05 0,-1.449 C 40.164,7.762 39.27,7.5 39.141,7.5 Z"
         style="fill:#b92917;fill-opacity:1;fill-rule:evenodd;stroke:none"
         id="path20" />
      <path
         d="m 74.25,18.703 c 0.105,0.66 0.324,2.785 1.281,2.91 0.961,0.129 0.969,-1.191 0.75,-1.582 -0.41,-0.738 -0.875,-1.445 -1.386,-2.121 -0.54,-0.66 -0.645,0.262 -0.645,0.793 z"
         style="fill:#b92917;fill-opacity:1;fill-rule:evenodd;stroke:none"
         id="path22" />
      <path
         d="m 99.75,33.141 -0.414,0.429 c 0,0.141 -0.27,0.571 -0.402,0.571 -0.137,0 -0.946,0.285 -1.215,0.285 -0.145,0 -0.821,0.14 -0.821,0.285 -0.136,0.223 -0.32,0.414 -0.539,0.562 0,0 0,0.286 0.27,0.286 0.269,0 0.269,0.285 0.269,0.285 0,0 0,0.57 -0.132,0.426 -0.137,-0.141 -0.137,0 -0.407,-0.286 l -1.761,-1.843 c 0,0 -0.407,-0.571 -0.539,-0.75 -0.008,-0.227 -0.188,-0.414 -0.414,-0.43 -0.29,0.004 -0.551,0.168 -0.676,0.43 -0.008,0.351 0.086,0.695 0.269,0.996 0.469,0.379 0.969,0.711 1.5,0.992 0.602,0.406 1.149,0.883 1.629,1.422 0.594,0.699 1.145,1.433 1.649,2.199 0.136,0.562 0,0.703 -0.27,0.703 -0.258,-0.086 -0.488,-0.23 -0.68,-0.426 -0.074,-0.078 -0.199,-0.078 -0.269,0 0,0 0,0.145 0.402,0.711 0.27,0.43 0.406,1.141 0.684,1.285 0.133,0 1.215,-0.75 0.945,-1.425 -0.113,-0.563 -0.344,-1.094 -0.676,-1.559 -0.136,-0.144 0,-0.43 0.27,-0.285 0.363,0.246 0.785,0.394 1.223,0.426 0.539,0 0.675,0.144 0.808,0 0.246,-0.239 0.43,-0.532 0.543,-0.856 0.133,-0.14 0.402,-0.14 0.68,0.145 0.273,0.426 0.676,0.75 0.945,0.426 0.137,-0.426 -0.133,-0.856 0.137,-0.856 0.269,-0.141 0.406,-0.426 0.539,-0.141 0.144,0.141 0.277,0.426 0.414,0.286 0,-0.145 0.269,-0.286 0.402,-0.571 0.137,-0.285 0,-0.715 -0.133,-0.715 -0.269,0.145 -0.683,0.145 -0.816,0.286 -0.223,-0.028 -0.437,0.086 -0.543,0.285 -0.133,0.144 -0.133,0.144 -0.269,0.144 -0.133,0 -0.403,0.141 -0.54,-0.144 -0.269,-0.141 -0.269,-0.426 -0.546,-0.426 -0.137,0 -0.676,0.141 -0.676,0.285 -0.137,0.141 0.137,0.426 -0.27,0.426 -0.406,0 -1.5,-0.141 -1.629,0 -0.132,0 0,0.285 -0.132,0.43 -0.27,0 -0.543,0.285 -0.676,0.14 l -0.547,-0.57 c 0,0 -0.27,-0.426 0.269,-0.426 0.411,0 1.086,-0.144 1.223,-0.144 0.133,0 0.406,0 0.406,-0.141 -0.136,-0.285 0.27,-0.145 0.133,-0.43 -0.133,-0.14 -0.269,-0.285 0,-0.285 0.414,-0.14 1.5,0 2.176,-0.14 0.539,-0.141 0.539,-0.422 0.676,-0.563 -0.063,-0.352 -0.328,-0.633 -0.676,-0.711 -0.145,0.141 -0.414,0.57 -0.684,0.711 -0.269,0 -1.214,0.277 -1.214,0.422 -0.141,0 -0.817,0.141 -0.954,0.141 -0.132,0 -0.808,-0.563 -0.269,-0.563 0.512,-0.105 1.012,-0.25 1.5,-0.426 0.269,-0.285 0.539,-1 0.406,-1.14 C 100.32,33.141 99.914,33 99.75,33.141 Z"
         style="fill:#b92917;fill-opacity:1;fill-rule:evenodd;stroke:none"
         id="path24" />
      <path
         d="m 94.957,36.691 c -0.277,0.133 -0.547,0.411 -0.41,0.555 0,0.277 0.555,0.41 0.555,0.688 0.132,0.414 -0.692,0.554 -0.969,0.554 C 93.723,38.105 93.344,37.688 93,37.246 92.863,37.102 92.586,36 92.176,36.277 c -0.356,0.246 -0.52,0.684 -0.414,1.102 0.277,0.277 0.547,0.422 0.961,0.832 0.277,0.277 0.691,0.691 0.691,0.828 0,0.133 -0.277,0.41 -0.551,0.555 -0.488,0.133 -1.008,0.133 -1.5,0 -0.156,-0.301 -0.25,-0.629 -0.277,-0.969 0.137,-0.414 0.137,-1.102 -0.277,-0.824 -0.278,0.133 -0.133,0.41 -0.411,0.687 -0.32,0.282 -0.378,0.758 -0.136,1.106 0.457,0.39 1.05,0.594 1.652,0.554 0.414,-0.011 0.828,-0.062 1.234,-0.144 0.278,0 0.692,-0.277 0.692,0 0,0.144 0.144,1.246 0.555,1.109 0.414,0 0.96,-0.277 0.824,-0.554 -0.102,-0.446 -0.289,-0.868 -0.555,-1.243 0,0 0,-0.554 0.145,-0.554 0.277,0.14 0.687,0.14 0.957,0.277 0.281,0 0.968,-0.277 0.836,-0.551 -0.293,-0.48 -0.618,-0.945 -0.969,-1.386 -0.121,-0.278 -0.383,-0.547 -0.676,-0.411 z"
         style="fill:#b92917;fill-opacity:1;fill-rule:evenodd;stroke:none"
         id="path26" />
      <path
         d="m 75.613,11.602 c -0.363,0.453 -0.679,0.941 -0.949,1.457 H 74.52 c -0.27,0 -1.223,0 -1.5,-0.262 -0.407,-0.137 -0.954,-0.535 -1.086,-0.535 -0.27,-0.125 -0.547,0 -0.684,0.398 -0.18,0.485 -0.012,1.031 0.414,1.328 0.539,0.66 0.672,0.524 1.223,0.399 0.277,0 0.547,-0.137 0.816,-0.137 -0.16,0.156 -0.297,0.336 -0.406,0.531 -0.516,0.559 -1.059,1.086 -1.633,1.582 l -1.914,0.934 c 0.137,0.125 -0.27,0.125 -0.27,-0.266 -0.144,-0.394 -0.414,-0.133 -0.816,0.129 -0.406,0.262 -0.144,0.793 -0.144,1.059 -0.133,0.269 -0.133,0.531 0.546,0.394 0.633,-0.277 1.227,-0.633 1.77,-1.054 0.844,-0.309 1.629,-0.758 2.328,-1.321 0.606,-0.66 1.152,-1.367 1.633,-2.125 h 2.039 c 0.277,0 0.551,0.274 0.961,0.137 0.406,0 0.953,-0.137 0.683,-0.531 -0.269,-0.399 -0.546,-0.797 -0.96,-0.66 -0.399,0.101 -0.809,0.148 -1.223,0.132 -0.235,0 -0.465,-0.046 -0.684,-0.132 0.137,-0.262 0.407,-0.528 0.407,-0.661 l 0.546,-0.535 c 0.321,-0.097 0.575,-0.343 0.684,-0.66 0.098,-0.398 0.051,-0.82 -0.137,-1.191 -0.324,-0.262 -0.812,-0.121 -0.949,0.269 -0.277,0.391 -0.414,1.321 -0.551,1.321 z"
         style="fill:#b92917;fill-opacity:1;fill-rule:evenodd;stroke:none"
         id="path28" />
      <path
         d="m 55.5,29.25 h -0.555 c -0.144,-0.969 -0.699,-2.203 -1.941,-2.203 h -2.508 c -0.734,0.055 -1.453,-0.242 -1.941,-0.797 0.277,1.238 0.699,2.477 2.086,2.754 h 1.808 c 0.629,-0.066 1.262,0.078 1.797,0.41 -2.355,0.137 -4.582,0.961 -5.25,3 -0.695,1.922 -0.418,6.465 -0.832,8.664 h -3.082 c -2.496,-0.137 -3.328,2.07 -3.473,4.68 -0.41,7.711 -0.968,15.277 -1.386,22.98 -0.278,5.918 -1.5,8.668 -3.473,10.731 h 4.172 c 0.687,-0.547 1.109,-1.235 2.074,-2.75 -0.238,0.972 -0.613,1.91 -1.109,2.781 h 3.617 c 0.684,-1.465 1.027,-3.062 0.996,-4.68 0.422,-8.527 0.832,-17.062 1.109,-25.59 0.145,-1.378 0.563,-2.207 1.672,-2.207 h 5.551 v -11.25 c -1.34,-0.332 -2.297,-1.507 -2.355,-2.886 0.039,-1.633 1.39,-2.926 3.023,-2.887 1.621,-0.047 2.953,1.273 2.918,2.895 -0.004,1.402 -0.992,2.605 -2.363,2.886 v 11.25 h 5.691 c 1.113,0 1.5,0.828 1.5,2.207 0.442,8.524 0.859,17.051 1.254,25.582 -0.031,1.618 0.312,3.215 0.996,4.68 h 3.617 c -0.547,-0.852 -0.968,-1.781 -1.254,-2.754 0.637,0.965 1.332,1.883 2.086,2.754 h 4.305 c -1.941,-2.062 -3.195,-4.816 -3.609,-10.734 -0.282,-7.7 -0.84,-15.27 -1.25,-22.977 -0.145,-2.613 -0.977,-4.816 -3.618,-4.68 h -2.914 c -0.414,-2.199 -0.281,-6.75 -0.836,-8.664 -0.832,-2.07 -2.914,-2.894 -5.25,-3 0.532,-0.351 1.172,-0.5 1.801,-0.414 h 1.809 c 1.387,-0.277 1.808,-1.5 1.941,-2.75 -0.461,0.59 -1.195,0.903 -1.941,0.824 h -2.387 c -1.242,0 -1.797,1.239 -1.941,2.204 z"
         style="fill:#b92917;fill-opacity:1;fill-rule:evenodd;stroke:none"
         id="path30" />
      <path
         d="M 55.434,0 C 86.023,0 111,25.141 111,55.809 111,86.609 86.023,111.75 55.434,111.75 24.84,111.75 0,86.609 0,55.809 0,25.141 24.832,0 55.434,0 Z m 0,1.934 c -29.5,0 -53.512,24.175 -53.512,53.875 0,29.699 24,54 53.512,54 29.511,0 53.644,-24.309 53.644,-54 0,-29.696 -24.148,-53.875 -53.644,-53.875 z"
         style="fill:#b92917;fill-opacity:1;fill-rule:evenodd;stroke:none"
         id="path32" />
      <path
         d="m 6.75,54.082 h 2.617 v 0.277 c -0.566,0.141 -1.082,0.434 -1.5,0.84 -0.367,0.477 -0.562,1.063 -0.555,1.664 -0.011,0.348 0.086,0.688 0.278,0.977 0.129,0.262 0.398,0.426 0.691,0.422 0.41,0 0.965,-0.559 1.379,-1.809 0.137,-0.144 0.137,-0.144 0.137,-0.277 0.226,-0.637 0.605,-1.211 1.101,-1.672 0.129,-0.172 0.332,-0.277 0.547,-0.277 0.141,-0.145 0.278,-0.145 0.555,-0.145 0.621,-0.004 1.219,0.246 1.648,0.699 0.457,0.547 0.7,1.239 0.692,1.949 -0.035,0.473 -0.129,0.938 -0.278,1.387 -0.074,0.238 -0.167,0.473 -0.277,0.699 0,0.133 0.141,0.133 0.141,0.278 h 0.414 v 0.277 L 12,59.512 V 59.25 c 0.527,-0.145 1.004,-0.434 1.371,-0.84 0.277,-0.449 0.422,-0.972 0.414,-1.5 0.047,-0.32 -0.058,-0.644 -0.285,-0.879 -0.137,-0.168 -0.34,-0.269 -0.555,-0.277 -0.414,0 -0.824,0.422 -1.101,1.387 l -0.137,0.144 c -0.277,0.555 -0.41,1.11 -0.547,1.387 -0.144,0.144 -0.277,0.422 -0.422,0.562 -0.269,0.137 -0.41,0.278 -0.679,0.414 -0.262,0.114 -0.543,0.164 -0.825,0.141 -0.636,0.07 -1.261,-0.195 -1.66,-0.695 -0.508,-0.516 -0.758,-1.231 -0.687,-1.953 -0.016,-0.504 0.031,-1.008 0.14,-1.5 0.075,-0.235 0.168,-0.465 0.27,-0.688 0,-0.144 -0.133,-0.285 -0.133,-0.422 H 6.75 Z m 2.484,11.406 c -0.25,0.11 -0.484,0.25 -0.691,0.422 -0.129,0.207 -0.18,0.457 -0.145,0.699 H 8.129 L 7.441,62.707 7.719,62.574 c 0.133,0.41 0.133,0.555 0.41,0.688 0.137,0.144 0.414,0.144 0.824,0.144 l 4.406,-0.832 c 0.278,-0.144 0.555,-0.144 0.688,-0.422 0.144,-0.136 0.144,-0.414 0.144,-0.699 h 0.27 l 0.687,4.035 h -0.277 c 0.043,-0.297 -0.129,-0.586 -0.41,-0.687 -0.207,-0.145 -0.484,-0.145 -0.691,0 z m 3.164,9.75 c -0.566,-0.14 -1.086,-0.429 -1.5,-0.84 -0.445,-0.41 -0.777,-0.925 -0.968,-1.5 -0.196,-0.445 -0.258,-0.941 -0.18,-1.421 0.023,-0.43 0.117,-0.856 0.277,-1.254 0.254,-0.465 0.586,-0.879 0.989,-1.223 0.414,-0.332 0.879,-0.586 1.382,-0.75 0.938,-0.375 1.993,-0.32 2.887,0.141 0.879,0.476 1.527,1.289 1.793,2.25 0.129,0.441 0.188,0.902 0.172,1.359 v 0.75 c 0,0.137 0.141,0.137 0.141,0.137 0.109,0.105 0.261,0.16 0.414,0.14 v 0.278 l -2.063,0.699 -0.14,-0.277 c 0.464,-0.262 0.847,-0.649 1.101,-1.118 0.137,-0.41 0.137,-0.847 0,-1.254 -0.129,-0.546 -0.555,-0.976 -1.101,-1.109 -0.793,-0.101 -1.598,-0.008 -2.34,0.277 -0.813,0.196 -1.567,0.575 -2.207,1.11 -0.418,0.453 -0.528,1.109 -0.278,1.672 0.137,0.383 0.375,0.722 0.692,0.976 0.32,0.266 0.695,0.457 1.101,0.555 z m 2.602,4.864 1.785,-1.114 1.102,1.809 -1.785,1.254 c -0.215,0.097 -0.454,0.144 -0.688,0.133 -0.277,0 -0.414,-0.133 -0.555,-0.418 l -0.273,0.14 2.062,3.481 0.278,-0.141 c -0.176,-0.238 -0.231,-0.551 -0.141,-0.832 0,-0.144 0.277,-0.277 0.555,-0.555 l 3.855,-2.371 c 0.18,-0.191 0.43,-0.293 0.692,-0.277 0.269,0 0.41,0.141 0.547,0.418 l 0.277,-0.141 -2.063,-3.34 -0.277,0.145 c 0.133,0.277 0.277,0.41 0.133,0.695 0,0.137 -0.277,0.414 -0.547,0.559 l -1.5,0.965 -1.207,-1.809 1.656,-0.965 c 0.176,-0.195 0.43,-0.3 0.692,-0.285 0.269,0 0.414,0.141 0.683,0.418 l 0.141,-0.133 -2.07,-3.347 -0.27,0.144 c 0.137,0.277 0.27,0.555 0.137,0.699 0,0.133 -0.137,0.411 -0.547,0.555 l -3.75,2.504 c -0.414,0.133 -0.692,0.277 -0.828,0.133 -0.278,0 -0.41,-0.133 -0.555,-0.41 l -0.277,0.132 2.207,3.481 0.14,-0.141 c -0.117,-0.261 -0.164,-0.547 -0.14,-0.832 0,-0.144 0.277,-0.277 0.554,-0.554 z m 9.504,10.011 2.34,-2.25 c 0.207,-0.179 0.351,-0.422 0.41,-0.691 0.137,-0.277 0,-0.418 -0.277,-0.695 l 0.277,-0.137 1.5,1.664 -0.141,0.144 c -0.175,-0.214 -0.414,-0.363 -0.683,-0.421 -0.278,0 -0.414,0.136 -0.692,0.421 l -2.34,2.25 c -0.273,0.293 -0.601,0.532 -0.964,0.696 -0.25,0.156 -0.536,0.25 -0.825,0.277 -0.382,-0.023 -0.757,-0.117 -1.105,-0.277 -0.426,-0.246 -0.801,-0.578 -1.102,-0.973 -0.586,-0.48 -0.933,-1.187 -0.961,-1.945 0,-0.723 0.36,-1.399 0.961,-1.805 L 23.414,84 c 0.102,-0.25 0.242,-0.48 0.414,-0.691 -0.058,-0.27 -0.203,-0.512 -0.414,-0.696 l 0.27,-0.144 2.761,2.926 -0.277,0.136 c -0.152,-0.144 -0.344,-0.242 -0.547,-0.277 -0.324,0.019 -0.625,0.172 -0.832,0.418 l -2.754,2.64 c -0.359,0.211 -0.609,0.567 -0.691,0.977 0.015,0.402 0.16,0.793 0.414,1.109 0.316,0.356 0.769,0.559 1.246,0.563 0.551,-0.176 1.062,-0.461 1.5,-0.84 z m 2.355,3.637 0.957,-0.562 1.5,1.117 -0.41,1.254 c 0,0.132 0,0.132 -0.136,0.132 v 0.145 c -0.141,0.133 -0.278,0.277 -0.278,0.277 -0.133,-0.144 -0.414,-0.144 -0.691,-0.422 l -0.133,0.278 3,2.093 0.133,-0.14 -0.27,-0.281 c -0.019,-0.192 0.028,-0.391 0.137,-0.555 l 1.648,-6.539 -0.687,-0.555 -5.508,3.617 c -0.277,0.141 -0.41,0.141 -0.547,0.278 -0.277,0 -0.418,-0.137 -0.554,-0.137 l -0.133,0.137 1.785,1.25 0.14,-0.133 -0.14,-0.145 c -0.137,-0.14 -0.274,-0.277 -0.274,-0.418 -0.14,-0.136 0,-0.277 0,-0.414 0.137,0 0.137,0 0.137,-0.14 0.137,0 0.137,0 0.277,-0.137 z M 28.23,92.91 30,91.641 29.332,93.75 Z m 7.852,1.254 c 0.109,-0.266 0.156,-0.551 0.137,-0.836 -0.157,-0.172 -0.34,-0.312 -0.547,-0.418 l 0.133,-0.277 2.617,1.254 1.238,5.113 1.246,-2.504 c 0.133,-0.414 0.27,-0.691 0.133,-0.832 0,-0.137 -0.133,-0.414 -0.547,-0.555 l 0.137,-0.281 2.062,0.977 -0.136,0.277 c -0.207,-0.144 -0.485,-0.144 -0.692,0 -0.133,0 -0.41,0.277 -0.547,0.555 l -2.339,5.25 -0.832,-0.278 -1.786,-7.093 -1.793,3.89 c -0.132,0.422 -0.277,0.699 -0.132,0.84 0,0.137 0.269,0.414 0.546,0.555 L 34.844,100.078 32.773,99 32.918,98.863 c 0.211,0.141 0.48,0.141 0.691,0 0.133,0 0.411,-0.277 0.547,-0.554 z m 17.492,8.07 L 53.852,99 c 0,-0.414 0,-0.691 -0.145,-0.832 -0.172,-0.199 -0.43,-0.305 -0.691,-0.277 l 0.144,-0.278 2.203,0.133 v 0.285 C 54.824,98.02 54.383,98.461 54.398,99 l -0.277,3.203 c -0.059,0.438 -0.148,0.871 -0.269,1.297 -0.145,0.277 -0.278,0.422 -0.414,0.699 -0.325,0.262 -0.7,0.453 -1.102,0.555 -0.449,0.117 -0.918,0.164 -1.383,0.133 -0.758,-0.047 -1.48,-0.34 -2.062,-0.832 -0.407,-0.617 -0.602,-1.348 -0.555,-2.086 l 0.277,-3.336 c 0.121,-0.285 0.067,-0.61 -0.133,-0.84 0,-0.137 -0.277,-0.277 -0.554,-0.277 v -0.278 l 3.996,0.278 v 0.277 c -0.305,-0.016 -0.602,0.086 -0.832,0.285 -0.137,0.133 -0.137,0.277 -0.27,0.688 l -0.277,3.902 c 0,0.555 0,0.973 0.277,1.254 0.133,0.277 0.414,0.41 0.961,0.41 0.449,0.039 0.899,-0.109 1.235,-0.41 0.371,-0.481 0.566,-1.07 0.558,-1.676 z M 57.426,99 c 0,-0.258 -0.102,-0.504 -0.278,-0.691 -0.132,-0.141 -0.41,-0.141 -0.679,-0.141 l -0.145,-0.277 3,-0.422 3.856,3.625 -0.414,-2.785 c 0.031,-0.262 -0.075,-0.524 -0.278,-0.696 -0.183,-0.175 -0.426,-0.273 -0.679,-0.277 l -0.145,-0.145 2.34,-0.41 v 0.278 c -0.27,0.132 -0.547,0.132 -0.68,0.41 -0.144,0.211 -0.144,0.488 0,0.699 l 0.68,5.844 -0.68,0.14 -5.379,-5.011 0.555,4.359 c 0.137,0.422 0.137,0.699 0.414,0.832 0.133,0.145 0.277,0.145 0.688,0.145 v 0.277 l -2.204,0.277 -0.136,-0.277 c 0.261,0.023 0.515,-0.082 0.683,-0.277 0.117,-0.262 0.164,-0.551 0.141,-0.836 z m 12.812,2.25 c 0.067,0.266 0.211,0.508 0.41,0.699 0.211,0.121 0.454,0.168 0.692,0.133 l 0.137,0.145 -3.856,1.109 -0.144,-0.137 c 0.308,-0.062 0.566,-0.269 0.691,-0.554 v -0.696 L 66.797,97.5 c 0.008,-0.289 -0.156,-0.559 -0.414,-0.691 -0.207,-0.145 -0.485,-0.145 -0.692,0 v -0.286 l 3.856,-1.109 v 0.277 c -0.277,0.145 -0.555,0.278 -0.555,0.422 -0.133,0.133 -0.133,0.41 0,0.832 z m 6.473,-1.109 0.41,-0.145 -0.555,-6.816 v -0.692 l 0.414,-0.418 -0.136,-0.277 -1.926,1.109 0.133,0.145 c 0.277,0 0.414,-0.145 0.558,-0.145 0.141,0 0.278,0.145 0.411,0.278 v 0.422 l 0.414,3.613 -2.895,-2.504 -0.137,-0.137 c 0,0 0,-0.14 -0.136,-0.14 v -0.278 c 0.136,-0.136 0.273,-0.277 0.414,-0.277 v -0.277 l -3.309,1.648 0.137,0.277 c 0.14,-0.14 0.277,-0.14 0.554,-0.14 0.157,0.172 0.34,0.312 0.547,0.418 z m 5.367,-2.926 -0.14,-0.137 c 0.21,-0.18 0.355,-0.426 0.414,-0.695 -0.032,-0.25 -0.125,-0.492 -0.274,-0.699 L 79.184,92.07 c -0.278,-0.277 -0.411,-0.422 -0.688,-0.422 -0.137,-0.132 -0.414,0 -0.684,0.145 l -0.14,-0.145 4.828,-3.898 1.238,1.387 -0.136,0.285 c -0.317,-0.356 -0.77,-0.559 -1.243,-0.563 -0.273,-0.132 -0.683,0.145 -1.238,0.563 l -0.691,0.555 1.656,2.25 0.137,-0.133 c 0.261,-0.133 0.422,-0.406 0.414,-0.699 -0.016,-0.407 -0.16,-0.793 -0.414,-1.11 L 82.5,90 l 2.062,2.781 -0.136,0.137 c -0.41,-0.414 -0.688,-0.699 -0.965,-0.699 -0.348,-0.059 -0.703,0.047 -0.961,0.285 v 0.137 l 1.371,1.671 c 0.145,0.278 0.277,0.415 0.422,0.415 0.266,-0.059 0.508,-0.204 0.684,-0.415 1.035,-0.585 1.355,-1.933 0.687,-2.925 l 0.277,-0.133 1.106,1.941 z m 6.61,-10.711 0.14,-0.133 c 0.25,-0.269 0.395,-0.613 0.414,-0.976 -0.133,-0.383 -0.375,-0.719 -0.691,-0.973 -0.278,-0.324 -0.676,-0.524 -1.102,-0.559 -0.41,0 -0.687,0.278 -0.965,0.692 z m 1.925,1.5 -1.5,-1.25 0.145,-0.137 3.578,0.692 1.648,-2.086 -0.132,-0.137 c -0.137,0.137 -0.278,0.277 -0.414,0.277 h -0.692 l -2.75,-0.562 c 0.109,-0.406 0.156,-0.828 0.133,-1.25 -0.098,-0.399 -0.344,-0.746 -0.688,-0.969 -0.379,-0.422 -0.996,-0.539 -1.5,-0.277 -0.695,0.25 -1.312,0.679 -1.785,1.246 l -2.484,3.066 0.144,0.137 c 0.211,-0.129 0.442,-0.223 0.68,-0.277 0.262,-0.016 0.512,0.085 0.692,0.277 l 3.441,2.922 c 0.277,0.277 0.555,0.558 0.555,0.691 0,0.285 -0.141,0.422 -0.278,0.699 l 0.137,0.141 2.617,-3.059 -0.137,-0.285 c -0.277,0.285 -0.41,0.418 -0.687,0.418 -0.137,0.145 -0.414,0 -0.691,-0.277 z m 5.785,-4.867 -2.339,-1.25 0.14,-0.278 c 0.563,0.262 1.203,0.313 1.801,0.141 0.543,-0.266 0.984,-0.707 1.246,-1.254 0.211,-0.273 0.309,-0.621 0.27,-0.965 0.011,-0.293 -0.153,-0.566 -0.414,-0.699 -0.411,-0.141 -1.102,0.145 -2.063,0.832 h -0.141 c 0,0.145 -0.136,0.145 -0.269,0.277 -0.453,0.446 -1.031,0.739 -1.66,0.84 -0.157,0.137 -0.391,0.137 -0.547,0 -0.277,0 -0.41,0 -0.555,-0.14 -0.574,-0.309 -0.976,-0.86 -1.094,-1.5 -0.121,-0.68 0.028,-1.379 0.411,-1.95 0.156,-0.41 0.445,-0.757 0.828,-0.976 l 0.547,-0.555 c 0.14,-0.137 0.14,-0.277 0,-0.277 0,-0.137 -0.137,-0.137 -0.27,-0.278 l 0.133,-0.277 2.062,1.11 -0.132,0.277 c -0.465,-0.27 -1.04,-0.27 -1.5,0 -0.559,0.172 -1.012,0.582 -1.239,1.117 -0.117,0.262 -0.164,0.547 -0.144,0.832 0,0.277 0.144,0.422 0.414,0.555 0.269,0.136 0.832,0 1.656,-0.555 V 78 c 0.391,-0.312 0.805,-0.594 1.238,-0.84 0.278,-0.277 0.547,-0.277 0.692,-0.414 h 0.824 c 0.293,0.027 0.574,0.125 0.824,0.277 0.578,0.305 0.985,0.86 1.102,1.5 0.109,0.723 -0.035,1.461 -0.41,2.086 -0.278,0.278 -0.547,0.7 -0.969,1.11 -0.27,0.285 -0.547,0.562 -0.547,0.562 v 0.278 c 0.012,0.148 0.129,0.269 0.277,0.277 z m 3.75,-10.989 -4.296,-1.648 c -0.27,-0.07 -0.508,-0.215 -0.692,-0.422 v -0.687 l -0.137,-0.145 -1.5,3.75 0.278,0.137 c 0.137,-0.278 0.273,-0.555 0.414,-0.555 0.258,-0.137 0.566,-0.137 0.824,0 l 4.254,1.672 c 0.25,0.105 0.48,0.246 0.691,0.422 0.02,0.281 -0.027,0.57 -0.144,0.832 l 0.277,0.133 1.5,-3.891 h -0.277 c -0.106,0.246 -0.301,0.445 -0.547,0.555 -0.238,0.008 -0.473,-0.039 -0.691,-0.137 z m -3,-10.992 1.793,0.418 -0.136,0.278 c -0.375,-0.032 -0.75,0.015 -1.102,0.144 -0.277,0.133 -0.414,0.555 -0.555,0.965 l -0.136,0.422 5.25,1.254 c 0.414,0.14 0.683,0.14 0.824,0 0.199,-0.196 0.34,-0.434 0.414,-0.699 l 0.277,0.14 -1.027,3.918 h -0.277 c 0.14,-0.422 0.14,-0.555 0,-0.832 -0.188,-0.176 -0.434,-0.277 -0.692,-0.277 l -5.25,-1.254 -0.14,0.418 c -0.114,0.375 -0.063,0.777 0.14,1.113 0.176,0.332 0.469,0.582 0.828,0.695 v 0.278 l -1.793,-0.418 z m 3.856,-5.566 2.07,0.144 c 0.539,0.012 0.981,-0.433 0.957,-0.976 h 0.219 v 4.035 h -0.277 c -0.004,-0.258 -0.102,-0.504 -0.27,-0.699 -0.144,-0.133 -0.422,-0.133 -0.832,-0.133 l -1.5,-0.145 -3.301,1.809 c -0.207,0.105 -0.398,0.25 -0.554,0.422 -0.137,0.133 -0.137,0.277 -0.137,0.555 h -0.277 v -3.75 h 0.277 c -0.02,0.152 0.031,0.304 0.137,0.418 l 0.14,0.144 h 0.137 l 0.133,-0.144 2.574,-1.239 -2.34,-1.394 h -0.137 c -0.14,-0.133 -0.14,-0.133 -0.277,-0.133 -0.133,0 -0.133,0.133 -0.277,0.277 v 0.555 h -0.27 V 53.25 H 97.5 v 0.141 c 0.012,0.109 0.062,0.207 0.141,0.281 0,0.133 0.136,0.277 0.414,0.41 z"
         style="fill:#b92917;fill-opacity:1;fill-rule:evenodd;stroke:none"
         id="path34" />
      <path
         d="m 45.75,89.863 v -0.269 c 0.379,0.043 0.762,-0.004 1.117,-0.133 0.145,0 0.145,-0.137 0.145,-0.27 v -3.097 c 0.015,-0.149 -0.035,-0.297 -0.145,-0.399 h -0.976 v -0.269 c 0.421,-0.137 0.843,-0.137 1.121,-0.27 0.406,-0.011 0.797,-0.156 1.117,-0.406 h 0.285 v 4.441 c 0.008,0.145 0.129,0.262 0.277,0.27 0.141,0.133 0.418,0.133 0.981,0.133 v 0.269 z m 7.141,-2.25 c -0.278,0.137 -0.422,0.274 -0.7,0.407 -0.097,0.164 -0.148,0.351 -0.14,0.539 0,0.398 0.14,0.535 0.418,0.804 0.301,0.168 0.64,0.262 0.984,0.27 0.305,0.035 0.613,-0.063 0.84,-0.27 0.168,-0.129 0.269,-0.324 0.277,-0.535 0,-0.269 -0.144,-0.402 -0.422,-0.672 -0.277,-0.136 -0.695,-0.269 -1.257,-0.543 z m 0.695,-0.808 c 0.211,-0.098 0.402,-0.239 0.562,-0.407 0.145,-0.132 0.145,-0.269 0.145,-0.531 -0.039,-0.203 -0.137,-0.394 -0.285,-0.539 -0.262,-0.121 -0.555,-0.168 -0.84,-0.137 -0.242,-0.019 -0.484,0.028 -0.699,0.137 -0.141,0.133 -0.278,0.27 -0.278,0.406 0,0.262 0.137,0.395 0.422,0.532 0.133,0.269 0.555,0.406 0.973,0.539 z m -1.258,0.539 c -0.32,-0.11 -0.605,-0.297 -0.84,-0.539 -0.203,-0.16 -0.308,-0.418 -0.277,-0.676 -0.012,-0.395 0.207,-0.762 0.562,-0.938 0.508,-0.293 1.09,-0.433 1.68,-0.402 0.496,-0.012 0.981,0.129 1.395,0.402 0.293,0.114 0.504,0.368 0.562,0.676 0,0.262 -0.144,0.399 -0.277,0.668 -0.34,0.156 -0.668,0.336 -0.985,0.539 0.399,0.121 0.778,0.305 1.118,0.539 0.277,0.239 0.433,0.586 0.422,0.946 -0.04,0.453 -0.301,0.855 -0.7,1.074 -0.508,0.293 -1.09,0.433 -1.679,0.406 -0.633,0.043 -1.266,-0.098 -1.821,-0.406 -0.422,-0.27 -0.699,-0.539 -0.699,-0.938 0.023,-0.316 0.176,-0.609 0.422,-0.808 0.324,-0.266 0.707,-0.449 1.117,-0.543 z m 4.199,2.25 0.422,-0.403 c 0.141,0.133 0.285,0.27 0.418,0.27 0.285,0 0.422,0.133 0.563,0.133 0.539,-0.024 1.047,-0.266 1.402,-0.672 0.309,-0.438 0.457,-0.969 0.422,-1.5 -0.164,0.289 -0.41,0.523 -0.707,0.672 -0.309,0.121 -0.645,0.168 -0.973,0.136 -0.453,-0.011 -0.89,-0.152 -1.262,-0.406 -0.277,-0.289 -0.429,-0.676 -0.421,-1.078 0.019,-0.574 0.273,-1.117 0.699,-1.5 0.496,-0.34 1.078,-0.527 1.68,-0.543 0.628,-0.004 1.23,0.238 1.679,0.676 0.449,0.418 0.703,1 0.699,1.613 -0.023,0.418 -0.117,0.828 -0.277,1.215 -0.101,0.355 -0.297,0.68 -0.562,0.938 -0.422,0.269 -0.7,0.406 -1.118,0.675 -0.41,0.118 -0.836,0.164 -1.261,0.133 -0.285,0.024 -0.575,-0.023 -0.84,-0.133 -0.211,-0.035 -0.406,-0.129 -0.563,-0.269 z m 2.25,-2.016 c 0.278,0 0.563,0 0.7,-0.269 0.175,-0.184 0.277,-0.422 0.285,-0.676 -0.012,-0.375 -0.11,-0.742 -0.285,-1.074 -0.215,-0.239 -0.52,-0.387 -0.84,-0.403 -0.293,-0.011 -0.567,0.145 -0.699,0.403 -0.141,0.136 -0.141,0.398 -0.141,0.804 0.008,0.336 0.105,0.66 0.281,0.946 0.137,0.269 0.422,0.269 0.699,0.269 z m 5.602,-0.406 c -0.285,0 -0.418,0.137 -0.703,0.269 -0.125,0.204 -0.172,0.442 -0.137,0.676 0,0.539 0,0.805 0.277,1.074 0.137,0.258 0.407,0.414 0.7,0.403 0.257,-0.004 0.507,-0.098 0.703,-0.27 0.136,-0.133 0.136,-0.402 0.136,-0.801 0,-0.398 0,-0.812 -0.136,-0.945 -0.196,-0.262 -0.512,-0.414 -0.84,-0.406 z m 2.371,-1.883 -0.562,0.27 c -0.114,-0.106 -0.266,-0.153 -0.422,-0.133 -0.133,-0.137 -0.278,-0.137 -0.555,-0.137 -0.484,-0.055 -0.965,0.149 -1.258,0.539 -0.394,0.399 -0.598,0.945 -0.562,1.5 0.168,-0.25 0.414,-0.437 0.695,-0.539 0.301,-0.168 0.641,-0.262 0.984,-0.269 0.457,-0.036 0.91,0.109 1.258,0.406 0.301,0.328 0.453,0.769 0.422,1.215 0.023,0.507 -0.184,1.004 -0.562,1.343 -0.469,0.395 -1.079,0.582 -1.688,0.516 -0.652,0.074 -1.309,-0.121 -1.816,-0.539 -0.454,-0.469 -0.704,-1.098 -0.704,-1.75 0.028,-0.418 0.122,-0.828 0.286,-1.215 0.187,-0.301 0.422,-0.574 0.695,-0.801 0.269,-0.3 0.605,-0.531 0.984,-0.675 0.418,-0.157 0.86,-0.25 1.305,-0.27 0.277,0 0.555,0.137 0.84,0.137 0.238,0.133 0.383,0.269 0.66,0.402 z"
         style="fill:#b92917;fill-opacity:1;fill-rule:evenodd;stroke:none"
         id="path36" />
      <path
         d="m 55.5,19.5 c 20.309,0 36.75,16.379 36.75,36.309 0.004,13.308 -7.254,25.554 -18.93,31.941 l -0.824,-1.5 C 83.727,80.242 90.742,68.543 90.75,55.809 90.75,36.699 75,21.137 55.5,21.137 c -19.344,0 -35.25,15.562 -35.25,34.672 0.016,12.8 7.078,24.554 18.375,30.578 L 37.957,87.75 C 26.148,81.469 18.762,69.184 18.75,55.809 18.75,35.879 35.332,19.5 55.5,19.5 Z"
         style="fill:#b92917;fill-opacity:1;fill-rule:evenodd;stroke:none"
         id="path38" />
      <path
         d="m 129.887,92.566 h 1.363 c -0.062,0.942 0.176,1.879 0.684,2.676 0.519,0.68 1.347,1.051 2.203,0.992 0.597,-0.015 1.172,-0.214 1.652,-0.57 0.492,-0.355 0.754,-0.949 0.68,-1.555 -0.008,-0.453 -0.153,-0.894 -0.41,-1.265 -0.614,-0.5 -1.313,-0.883 -2.063,-1.125 -1.5,-0.707 -2.609,-1.278 -3.16,-1.981 -0.555,-0.672 -0.848,-1.523 -0.824,-2.394 -0.063,-1.125 0.394,-2.215 1.238,-2.961 0.848,-0.801 1.992,-1.215 3.156,-1.133 0.602,-0.02 1.203,0.031 1.793,0.141 0.696,0.047 1.383,0.136 2.063,0.281 v 3.672 h -1.086 c 0.094,-0.813 -0.156,-1.629 -0.692,-2.25 -0.464,-0.481 -1.117,-0.739 -1.785,-0.703 -0.535,-0.051 -1.07,0.097 -1.5,0.418 -0.375,0.371 -0.574,0.882 -0.547,1.41 0.008,0.457 0.149,0.898 0.414,1.269 0.61,0.5 1.309,0.887 2.063,1.133 0.133,0 0.277,0.141 0.547,0.285 0.855,0.266 1.648,0.696 2.34,1.266 0.398,0.328 0.687,0.769 0.824,1.269 0.281,0.465 0.426,1.004 0.414,1.551 0.012,1.227 -0.484,2.403 -1.375,3.246 -0.969,0.895 -2.262,1.352 -3.578,1.27 -0.785,-0.016 -1.571,-0.113 -2.34,-0.285 -0.773,-0.157 -1.516,-0.442 -2.195,-0.848 0.117,-0.461 0.164,-0.937 0.132,-1.41 v -2.391 z m 11.824,4.649 v -0.848 h 0.137 c 0.429,0.028 0.859,-0.066 1.238,-0.277 0.199,-0.442 0.293,-0.926 0.277,-1.41 V 85.5 c 0.184,-0.812 -0.586,-1.52 -1.379,-1.266 h -0.234 v -0.707 h 1.648 c 0.497,0.106 0.997,0.153 1.5,0.137 0.555,0.02 1.11,-0.023 1.653,-0.137 h 1.5 v 0.707 c -0.387,-0.031 -0.774,0.067 -1.102,0.278 -0.273,0.14 -0.414,0.426 -0.414,0.988 v 9.172 c -0.019,0.484 0.078,0.969 0.277,1.41 0.379,0.211 0.809,0.305 1.239,0.277 v 0.848 c -0.492,-0.117 -0.996,-0.16 -1.5,-0.133 h -3 c -0.598,-0.019 -1.196,0.028 -1.785,0.133 z m 20.484,-13.403 c 0,0.571 -0.136,0.989 -0.136,1.411 v 2.828 h -1.102 c -0.016,-1.02 -0.352,-2.012 -0.961,-2.828 -0.523,-0.598 -1.269,-0.953 -2.062,-0.985 -1.204,-0.039 -2.34,0.547 -3,1.555 -0.774,1.219 -1.157,2.645 -1.102,4.086 -0.098,1.559 0.34,3.101 1.238,4.375 0.621,1.062 1.766,1.711 3,1.695 0.688,0.028 1.364,-0.168 1.926,-0.562 0.699,-0.508 1.301,-1.129 1.785,-1.84 l 0.969,0.562 c -0.637,1.012 -1.48,1.879 -2.477,2.543 -0.953,0.575 -2.05,0.868 -3.164,0.848 -1.816,0.09 -3.582,-0.633 -4.812,-1.973 -1.238,-1.273 -1.785,-3 -1.785,-5.25 -0.071,-1.886 0.625,-3.718 1.926,-5.086 1.382,-1.386 3.296,-2.105 5.25,-1.972 1.39,0.058 2.769,0.246 4.124,0.562 z m 2.477,13.403 v -0.848 h 0.14 c 0.387,0.035 0.774,-0.062 1.094,-0.277 0.278,-0.285 0.278,-0.703 0.278,-1.41 V 85.5 c 0.058,-0.355 -0.043,-0.719 -0.278,-0.988 -0.281,-0.196 -0.617,-0.293 -0.957,-0.278 h -0.277 v -0.707 h 1.234 c 0.637,0.121 1.282,0.168 1.93,0.137 0.598,0.027 1.195,-0.019 1.785,-0.137 h 1.238 v 0.707 c -0.39,-0.031 -0.777,0.067 -1.105,0.278 -0.27,0.14 -0.41,0.426 -0.41,0.988 v 3.809 h 5.64 V 85.5 c 0.039,-0.379 -0.117,-0.75 -0.414,-0.988 -0.328,-0.211 -0.715,-0.309 -1.101,-0.278 h -0.137 v -0.707 h 1.5 c 0.543,0.118 1.098,0.164 1.652,0.137 0.551,0.031 1.11,-0.012 1.649,-0.137 h 1.371 v 0.707 h -0.133 c -0.762,-0.117 -1.433,0.5 -1.383,1.266 v 9.172 c 0,0.707 0.145,1.125 0.414,1.269 0.145,0.286 0.555,0.418 1.102,0.418 v 0.848 c -0.543,-0.113 -1.094,-0.156 -1.649,-0.133 h -2.476 c -0.645,-0.019 -1.289,0.028 -1.926,0.133 v -0.848 c 0.43,0.028 0.859,-0.066 1.238,-0.277 0.204,-0.441 0.301,-0.926 0.278,-1.41 v -4.371 h -5.641 v 4.371 c -0.019,0.484 0.078,0.969 0.277,1.41 0.375,0.211 0.805,0.305 1.239,0.277 v 0.715 h -4.539 c -0.555,-0.023 -1.106,0.02 -1.649,0.133 z M 183.098,85.5 c 0.183,-0.812 -0.586,-1.52 -1.379,-1.266 h -0.137 v -0.707 c 0.598,-0.027 1.199,0.02 1.785,0.137 h 2.754 c 0.586,-0.117 1.188,-0.164 1.785,-0.137 v 0.707 c -0.433,-0.043 -0.867,0.051 -1.238,0.278 -0.27,0.14 -0.414,0.426 -0.414,0.988 v 6.211 c 0,0.98 0.144,1.687 0.144,2.113 0.11,0.34 0.247,0.672 0.411,0.992 0.339,0.313 0.707,0.594 1.097,0.84 0.489,0.121 0.996,0.172 1.5,0.141 0.906,0.07 1.801,-0.235 2.473,-0.848 0.547,-0.703 0.683,-1.828 0.683,-3.238 v -5.926 c 0,-0.57 0,-0.988 -0.269,-1.273 -0.371,-0.227 -0.805,-0.321 -1.238,-0.278 v -0.707 h 1.093 c 0.278,0 0.555,0.137 0.829,0.137 0.269,0 0.687,-0.137 0.964,-0.137 h 0.961 v 0.707 c -0.3,-0.019 -0.597,0.082 -0.824,0.278 -0.226,0.383 -0.324,0.828 -0.277,1.273 l -0.137,6.203 c 0,2 -0.41,3.41 -1.238,4.239 -0.824,0.847 -2.196,1.265 -3.988,1.265 -1.418,0.078 -2.817,-0.32 -3.985,-1.133 -0.945,-0.859 -1.449,-2.105 -1.371,-3.382 z m 18.699,1.551 -1.793,4.66 h 3.441 z m -3.168,8.043 c -0.078,0.074 -0.125,0.176 -0.133,0.285 v 0.277 c 0,0.426 0.41,0.571 1.371,0.703 v 0.848 c -0.355,-0.109 -0.73,-0.156 -1.101,-0.133 h -1.653 c -0.461,-0.012 -0.922,0.035 -1.371,0.133 v -0.848 c 0.332,-0.109 0.653,-0.25 0.961,-0.418 0.34,-0.379 0.617,-0.804 0.824,-1.269 l 4.817,-11.145 h 1.234 l 4.262,11.852 c 0.113,0.285 0.305,0.527 0.555,0.703 0.289,0.176 0.621,0.273 0.96,0.277 v 0.848 c -0.543,-0.113 -1.097,-0.156 -1.652,-0.133 h -2.75 c -0.598,-0.023 -1.199,0.02 -1.785,0.133 v -0.848 c 0.414,-0.011 0.828,-0.054 1.238,-0.132 0.278,-0.145 0.278,-0.286 0.278,-0.571 V 95.25 l -0.969,-2.543 h -4.125 z m 23.512,-2.844 v -6.602 c 0,-0.562 -0.141,-0.988 -0.411,-1.132 -0.425,-0.215 -0.902,-0.313 -1.378,-0.278 v -0.703 h 4.265 v 0.703 h -0.14 c -0.344,-0.011 -0.68,0.086 -0.961,0.278 -0.192,0.347 -0.286,0.738 -0.278,1.132 V 97.215 H 222 L 213.613,86.07 v 8.61 c -0.019,0.484 0.075,0.968 0.278,1.41 0.472,0.215 0.988,0.312 1.5,0.277 v 0.848 c -0.403,-0.11 -0.821,-0.156 -1.235,-0.137 h -2.199 c -0.371,-0.027 -0.742,0.016 -1.094,0.137 v -0.848 c 0.43,0.051 0.864,-0.051 1.231,-0.277 0.32,-0.395 0.468,-0.902 0.41,-1.41 v -9 c 0.039,-0.418 -0.113,-0.836 -0.41,-1.133 -0.137,-0.133 -0.547,-0.133 -1.098,-0.277 v -0.704 h 1.375 c 0.277,0 0.547,0.133 0.824,0.133 0.278,0 0.692,-0.133 0.961,-0.133 h 1.235 z m 15,-6.75 c 0.187,-0.812 -0.582,-1.52 -1.379,-1.266 h -0.133 v -0.707 c 0.551,-0.035 1.109,0.012 1.648,0.137 h 2.887 c 0.543,-0.113 1.098,-0.16 1.652,-0.137 v 0.707 c -0.39,-0.031 -0.777,0.067 -1.105,0.278 -0.27,0.14 -0.41,0.426 -0.41,0.988 v 6.211 c 0,0.98 0.14,1.687 0.14,2.113 0.11,0.34 0.25,0.672 0.414,0.992 0.336,0.313 0.704,0.594 1.094,0.84 0.489,0.129 0.996,0.176 1.5,0.141 0.906,0.074 1.805,-0.235 2.477,-0.848 0.5,-1.004 0.738,-2.117 0.687,-3.238 v -5.926 c 0.008,-0.441 -0.09,-0.875 -0.277,-1.273 -0.371,-0.227 -0.805,-0.324 -1.234,-0.278 v -0.707 h 1.101 c 0.27,0 0.547,0.137 0.824,0.137 0.278,0 0.547,-0.137 0.961,-0.137 h 0.961 v 0.707 c -0.301,-0.015 -0.597,0.082 -0.828,0.278 -0.219,0.383 -0.312,0.832 -0.269,1.273 l -0.141,6.203 c 0,2 -0.414,3.41 -1.238,4.239 -0.825,0.847 -2.2,1.265 -3.985,1.265 -1.418,0.098 -2.832,-0.301 -3.988,-1.133 -0.945,-0.859 -1.449,-2.105 -1.371,-3.382 z m 25.023,6.75 v -6.602 c 0.031,-0.394 -0.066,-0.793 -0.277,-1.132 -0.473,-0.211 -0.989,-0.305 -1.5,-0.278 v -0.703 h 4.258 v 0.703 h -0.133 c -0.344,0.012 -0.676,0.11 -0.969,0.278 -0.188,0.351 -0.281,0.738 -0.27,1.132 v 11.567 h -1.101 L 253.648,86.07 v 8.61 c -0.054,0.508 0.094,1.015 0.414,1.41 0.422,0.222 0.899,0.32 1.372,0.277 v 0.848 c -0.403,-0.11 -0.821,-0.156 -1.235,-0.137 H 252 c -0.371,-0.019 -0.746,0.027 -1.102,0.137 v -0.848 c 0.473,0.024 0.946,-0.074 1.372,-0.277 0.207,-0.442 0.3,-0.926 0.277,-1.41 v -9 c 0.012,-0.395 -0.086,-0.785 -0.277,-1.133 -0.407,-0.121 -0.821,-0.211 -1.239,-0.277 v -0.704 h 1.383 c 0.41,0 0.68,0.133 0.957,0.133 0.277,0 0.551,-0.133 0.961,-0.133 h 1.238 z m 4.672,4.934 v -0.848 c 0.43,0.051 0.867,-0.047 1.238,-0.277 0.203,-0.438 0.301,-0.922 0.278,-1.411 V 85.5 c -0.008,-0.348 -0.106,-0.688 -0.278,-0.988 -0.336,-0.192 -0.715,-0.289 -1.097,-0.278 h -0.141 v -0.707 h 1.5 c 0.543,0.114 1.094,0.157 1.648,0.137 0.504,0.012 1.008,-0.031 1.5,-0.137 h 1.5 v 0.707 c -0.386,-0.031 -0.769,0.067 -1.093,0.278 -0.278,0.14 -0.414,0.426 -0.414,0.988 v 9.172 c -0.02,0.484 0.074,0.969 0.269,1.41 0.387,0.191 0.809,0.285 1.238,0.277 v 0.848 c -0.492,-0.117 -0.996,-0.16 -1.5,-0.133 h -3 c -0.554,-0.023 -1.105,0.024 -1.648,0.133 z m 15.125,0.144 h -1.387 L 276.309,85.5 c -0.098,-0.371 -0.286,-0.711 -0.547,-0.988 -0.293,-0.172 -0.625,-0.27 -0.961,-0.278 h -0.145 v -0.707 h 1.653 c 0.554,0 0.964,0.137 1.379,0.137 0.414,0 0.683,-0.137 1.238,-0.137 h 2.062 v 0.707 h -0.144 c -0.324,0.012 -0.645,0.059 -0.957,0.141 -0.223,0.109 -0.379,0.32 -0.414,0.563 0,0.14 0,0.14 0.136,0.277 v 0.144 l 2.75,8.325 3.157,-8.184 c 0.144,-0.285 0.144,-0.285 0.144,-0.422 0.012,-0.105 0.059,-0.203 0.137,-0.281 0,-0.285 -0.137,-0.285 -0.414,-0.422 -0.137,-0.141 -0.547,-0.141 -0.961,-0.141 H 284.25 V 83.527 H 288 l 0.141,0.707 c -0.293,0.008 -0.582,0.106 -0.825,0.278 -0.195,0.25 -0.336,0.539 -0.41,0.847 z m 7.695,-0.144 v -0.848 h 0.278 c 0.386,-0.008 0.761,-0.102 1.105,-0.277 0.168,-0.301 0.262,-0.641 0.27,-0.989 V 85.5 c 0.015,-0.305 -0.079,-0.609 -0.27,-0.848 -0.301,-0.277 -0.695,-0.429 -1.105,-0.418 h -0.278 v -0.707 h 10.043 v 1.551 c 0,0.422 0.137,1.125 0.137,1.688 h -0.824 c -0.071,-0.68 -0.364,-1.325 -0.828,-1.828 -0.727,-0.348 -1.536,-0.497 -2.34,-0.426 -0.547,0 -0.957,0 -1.094,0.14 -0.277,0 -0.277,0.286 -0.277,0.426 v 4.652 h 1.648 c 0.484,0.055 0.961,-0.16 1.238,-0.562 0.317,-0.402 0.457,-0.914 0.391,-1.418 h 0.691 v 4.656 h -0.691 c 0.059,-0.504 -0.09,-1.015 -0.414,-1.41 -0.133,-0.285 -0.547,-0.426 -1.102,-0.426 h -1.785 v 4.68 c 0,0.285 0,0.422 0.137,0.562 0.254,0.129 0.543,0.176 0.824,0.141 1.129,0.098 2.266,-0.094 3.301,-0.562 0.629,-0.551 1.066,-1.293 1.238,-2.114 h 0.801 c -0.137,0.707 -0.27,1.27 -0.414,1.973 -0.156,0.648 -0.246,1.309 -0.27,1.973 -0.82,-0.118 -1.648,-0.161 -2.472,-0.137 h -5.641 c -0.781,-0.024 -1.566,0.019 -2.34,0.137 z m 13.203,0 v -0.848 c 0.387,0.035 0.774,-0.063 1.102,-0.277 0.32,-0.395 0.469,-0.903 0.41,-1.411 V 85.5 c 0.012,-0.375 -0.137,-0.734 -0.41,-0.988 -0.285,-0.196 -0.621,-0.293 -0.961,-0.278 h -0.141 v -0.707 h 1.235 c 0.414,0 0.828,0.137 1.238,0.137 0.547,0 1.238,-0.137 2.063,-0.137 h 1.785 c 1.187,-0.062 2.375,0.18 3.441,0.707 0.801,0.532 1.266,1.438 1.238,2.399 0.02,0.828 -0.277,1.629 -0.824,2.25 -0.601,0.746 -1.418,1.285 -2.34,1.543 0.649,0.344 1.211,0.824 1.649,1.41 0.672,0.953 1.269,1.957 1.785,3 -0.016,0.156 0.035,0.309 0.144,0.422 0.411,0.988 0.825,1.41 1.239,1.41 h 0.133 v 0.703 c -0.692,-0.141 -1.5,-0.141 -2.473,-0.277 h -0.281 c -0.383,0.011 -0.762,-0.086 -1.094,-0.285 -0.367,-0.407 -0.649,-0.887 -0.824,-1.411 -0.145,-0.425 -0.278,-0.847 -0.555,-1.55 -0.547,-1.551 -0.961,-2.399 -1.371,-2.684 -0.137,0 -0.281,-0.137 -0.414,-0.137 h -1.238 v 3.668 c -0.047,0.442 0.05,0.887 0.277,1.266 0.137,0.285 0.547,0.422 1.094,0.422 v 0.847 c -0.586,-0.101 -1.184,-0.148 -1.782,-0.136 h -2.613 c -0.504,-0.016 -1.004,0.031 -1.5,0.136 z m 4.5,-7.192 h 0.825 c 0.754,0.051 1.496,-0.203 2.062,-0.703 0.918,-1.262 0.918,-2.973 0,-4.23 -0.629,-0.485 -1.406,-0.735 -2.199,-0.707 h -0.41 c -0.145,0.136 -0.145,0.136 -0.278,0.136 z m 10.723,2.543 h 1.418 c -0.062,0.942 0.18,1.883 0.691,2.676 0.481,0.652 1.254,1.023 2.063,0.992 0.641,0.004 1.266,-0.195 1.785,-0.57 0.445,-0.391 0.695,-0.961 0.688,-1.555 -0.008,-0.453 -0.153,-0.894 -0.411,-1.266 -0.613,-0.5 -1.312,-0.878 -2.062,-1.124 -1.5,-0.704 -2.613,-1.274 -3.168,-1.981 -0.551,-0.672 -0.844,-1.519 -0.824,-2.391 -0.063,-1.125 0.394,-2.218 1.238,-2.964 0.84,-0.821 1.996,-1.235 3.164,-1.133 0.555,-0.024 1.109,0.027 1.652,0.144 0.739,0.035 1.473,0.125 2.196,0.278 v 3.675 h -1.094 c 0.023,-0.808 -0.219,-1.597 -0.691,-2.25 -0.965,-0.824 -2.348,-0.937 -3.434,-0.285 -0.324,0.403 -0.52,0.895 -0.555,1.41 0.012,0.454 0.153,0.895 0.41,1.266 0.653,0.441 1.344,0.82 2.063,1.133 0.246,0.055 0.48,0.152 0.691,0.285 0.856,0.266 1.649,0.699 2.34,1.266 0.395,0.332 0.684,0.773 0.824,1.269 0.235,0.485 0.325,1.02 0.27,1.551 0.062,1.211 -0.387,2.387 -1.234,3.25 -0.985,0.883 -2.278,1.348 -3.602,1.289 -0.789,-0.016 -1.57,-0.113 -2.34,-0.285 -0.781,-0.129 -1.531,-0.418 -2.199,-0.848 0.121,-0.461 0.168,-0.933 0.137,-1.41 v -2.391 z m 11.828,4.649 v -0.848 h 0.137 c 0.426,0.008 0.851,-0.086 1.234,-0.277 0.199,-0.442 0.289,-0.926 0.27,-1.411 V 85.5 c 0.011,-0.375 -0.137,-0.734 -0.41,-0.988 -0.282,-0.196 -0.621,-0.293 -0.961,-0.278 h -0.27 v -0.707 h 1.641 c 0.492,0.11 0.996,0.157 1.5,0.137 0.554,0.02 1.109,-0.023 1.652,-0.137 h 1.5 v 0.707 c -0.43,-0.007 -0.851,0.086 -1.238,0.278 -0.219,0.277 -0.317,0.633 -0.277,0.988 v 9.172 c -0.024,0.484 0.07,0.969 0.277,1.41 0.324,0.215 0.711,0.313 1.094,0.277 h 0.144 v 0.848 c -0.492,-0.109 -0.996,-0.156 -1.5,-0.133 h -3 c -0.598,-0.019 -1.195,0.028 -1.785,0.133 z m 10.582,0 v -0.848 h 0.278 c 0.386,0.035 0.773,-0.063 1.093,-0.277 0.278,-0.254 0.426,-0.614 0.414,-0.989 V 84.516 h -0.414 c -1.5,-0.282 -2.886,0.875 -2.886,2.402 h -0.68 l 0.133,-3.383 h 10.859 l 0.145,3.383 h -0.684 c -0.113,-1.473 -1.422,-2.559 -2.887,-2.402 h -0.414 v 10.441 c -0.011,0.395 0.086,0.789 0.278,1.133 0.386,0.191 0.808,0.285 1.238,0.277 h 0.137 v 0.848 c -0.637,-0.106 -1.286,-0.153 -1.93,-0.137 h -3 c -0.555,-0.019 -1.106,0.024 -1.649,0.137 z m 18.285,-6.067 v 3.531 c -0.058,0.508 0.09,1.016 0.414,1.411 0.368,0.23 0.805,0.328 1.235,0.277 h 0.324 v 0.848 c -0.637,-0.106 -1.281,-0.153 -1.926,-0.133 h -2.89 c -0.688,-0.024 -1.379,0.023 -2.063,0.133 v -0.848 h 0.414 c 0.434,0.051 0.867,-0.047 1.238,-0.277 0.278,-0.286 0.278,-0.704 0.278,-1.411 v -3.531 l -3.438,-5.926 c -0.41,-0.562 -0.824,-0.98 -1.234,-0.98 h -0.277 v -0.707 h 1.648 c 0.414,0 0.961,0.137 1.5,0.137 0.691,0 1.238,-0.137 1.793,-0.137 h 1.371 v 0.707 c -0.547,0 -0.961,0 -1.102,0.141 -0.269,0.136 -0.269,0.136 -0.269,0.421 v 0.286 L 358.5,90 l 2.617,-4.934 v -0.429 c 0,-0.141 0,-0.278 -0.277,-0.278 -0.352,-0.136 -0.731,-0.183 -1.102,-0.14 v -0.707 h 1.239 c 0.277,0 0.554,0.136 0.824,0.136 0.41,0 0.687,-0.136 0.965,-0.136 h 0.984 v 0.707 c -0.277,0.019 -0.555,0.07 -0.824,0.14 -0.215,0.211 -0.399,0.45 -0.547,0.707 z"
         style="fill:#b92917;fill-opacity:1;fill-rule:evenodd;stroke:none"
         id="path40" />
      <path
         d="m 148.777,44.039 c -0.824,-0.285 -0.691,-2.519 -2.062,-3.359 -0.981,-0.633 -2.137,-0.926 -3.301,-0.832 -0.965,0.136 -3,1.816 -3.164,5.308 0,3.489 3.434,13.133 4.672,14.805 1.246,1.5 5.504,0.699 4.957,-0.973 -0.688,-1.539 -1.793,-5.875 -0.688,-7.965 1.102,-1.957 3.164,-5.589 9.215,-9.226 6.188,-3.488 10.86,-3.344 11.965,-2.934 1.102,0.414 0.688,2.379 0.547,2.934 -0.27,0.562 -4.402,5.453 -4.402,5.875 -0.137,0.418 -1.5,1.25 -1.653,-0.281 0,-1.5 -0.269,-3.075 -1.785,-3.637 -1.371,-0.555 -2.75,-0.84 -3.433,1.117 -0.481,1.438 0.019,3.02 1.238,3.918 0.683,0.695 1.918,1.813 0.824,1.957 -0.969,0 -4.125,2.09 -4.125,2.09 0,0 -2.07,-0.277 -2.48,1.5 -0.274,1.816 0.964,3.918 1.925,3.355 1.68,-1.101 3.434,-2.082 5.25,-2.933 1.785,-0.699 4.672,-1.68 5.774,-0.977 1.105,0.707 1.238,1.817 3.168,2.793 2.062,1.117 5.91,1.258 7.558,0.563 1.657,-0.84 10.457,-4.891 12.246,-4.758 1.922,0.144 3.985,2.101 4.809,-1.395 0.691,-3.496 -3.57,-12.855 -9.211,-15.089 -6.32,-2.418 -13.23,-2.86 -19.805,-1.258 -7.425,1.535 -11.004,3.074 -13.757,5.871 -2.743,2.656 -3.434,3.914 -4.258,3.496 z m 19.5,6.422 c -0.414,-0.258 -0.925,-0.309 -1.379,-0.137 -0.824,0.137 4.813,-3.496 6.875,-4.746 2.063,-1.254 1.239,-2.664 0.145,-4.191 -0.969,-1.403 -0.969,-1.403 -1.5,-2.102 2.266,-0.449 4.586,-0.543 6.879,-0.277 3.574,0.277 7.836,1.394 10.031,4.5 1.238,1.68 -5.25,4.191 -6.867,5.168 -1.793,0.84 -6.879,3.636 -7.981,4.191 -1.101,0.422 -1.5,-0.695 -2.753,-2.094 -1.223,-1.273 -3.418,-0.312 -3.418,-0.312 z"
         style="fill:#b92917;fill-opacity:1;fill-rule:evenodd;stroke:none"
         id="path42" />
      <path
         d="m 220.762,32.863 c -1.633,0.137 -2.586,0.821 -2.309,3.551 0.406,2.586 2.039,2.856 1.5,7.223 -0.539,4.226 -1.5,13.093 -1.5,14.593 0,1.364 -1.23,3.54 -1.5,4.5 -0.406,0.954 -0.953,3.954 1.223,4.364 2.176,0.414 2.316,-2.457 2.586,-3.68 0.406,-1.367 1.769,-12.684 1.769,-14.461 -0.097,-2.558 0.082,-5.117 0.543,-7.637 0.41,-1.5 0.949,-2.863 0.278,-4.769 -0.684,-1.777 -0.954,-3.817 -2.59,-3.684 z m 10.5,2.051 c -0.684,-0.144 -1.903,-0.277 -2.453,0.949 -0.672,1.231 0,3.274 0.55,4.5 0.473,1.266 0.707,2.606 0.68,3.953 -0.277,1.231 -0.41,9.414 0.406,10.231 0.684,0.816 2.039,-0.133 2.856,-1.91 0.82,-1.907 1.367,-4.367 0.82,-5.59 -0.441,-1.348 -0.344,-2.817 0.27,-4.094 0.683,-1.637 0.277,-3.816 -0.27,-5.723 -0.328,-1.324 -1.496,-2.273 -2.859,-2.316 z M 244.461,21.27 c -0.816,-0.133 -2.586,-0.27 -3.125,0.414 -0.684,0.679 -0.953,2.179 -0.277,3.816 0.671,1.352 0.957,2.863 0.816,4.363 -0.137,0.953 0.137,12 0.137,14.867 0,2.864 -0.407,8.317 -0.274,12 0.137,3.684 0,10.223 1.367,12 1.5,1.77 3.532,-0.816 3,-2.73 -0.546,-1.77 -0.683,-1.23 -1.23,-4.637 -0.406,-3.547 -0.539,-21.547 -0.539,-22.91 0.133,-1.5 0.539,-6.683 1.223,-8.183 0.546,-1.5 2.722,-3.133 2.316,-4.907 0.238,-1.633 -2.625,-3.816 -3.434,-4.093 z"
         style="fill:#b92917;fill-opacity:1;fill-rule:evenodd;stroke:none"
         id="path44" />
      <path
         d="m 288.336,54.504 c 1.383,2.367 5.926,9.629 9.918,8.09 3.996,-1.395 2.348,-6 0.687,-7.117 -1.5,-1.118 -9.089,-4.606 -9.089,-4.606 -3.172,-1.394 -2.34,2.25 -1.5,3.633 z m -3.75,-25.27 c 0.414,-0.277 -0.555,-3.75 -0.41,-5.445 0.14,-1.695 1.379,-2.789 2.472,-2.512 1.098,0.278 2.762,2.934 2.618,4.192 -0.145,1.242 -0.571,2.433 -1.235,3.488 -0.414,0.422 -0.691,0.977 -0.828,2.371 -0.133,0.84 -0.41,2.098 -0.687,3.352 0.941,-0.254 1.859,-0.582 2.75,-0.977 1.234,-0.629 2.429,-1.328 3.586,-2.09 1.382,-1.117 2.753,0 4.269,0.832 1.379,0.84 0.141,2.25 -1.238,2.934 -1.5,0.84 -2.754,0.418 -3.75,0.84 -0.824,0.418 -4.68,2.09 -6.61,3.207 -0.507,3.363 -1.293,6.676 -2.347,9.91 -0.824,2.512 -4.129,6.285 -5.781,8.375 -1.793,2.25 -2.754,5.168 -4.543,6.285 -1.793,1.254 -2.207,0.414 -2.485,-0.703 -0.277,-1.117 -1.867,-2.543 -0.765,-3.906 1.101,-1.5 1.382,-3.211 2.207,-1.676 0.687,1.398 1.925,0.555 1.648,0.555 -0.277,-0.133 3.586,-4.325 4.688,-6.278 1.238,-2.09 2.617,-6.84 3.164,-7.957 0.304,-0.765 0.539,-1.558 0.691,-2.367 -0.914,0.488 -1.789,1.047 -2.617,1.672 -1.5,1.117 -1.793,1.5 -4.547,0.418 -2.75,-1.258 -3.441,-2.512 -3.582,-4.051 -0.27,-1.5 0.555,-2.512 1.379,-2.652 0.969,-0.278 3.164,0.285 4.679,0.562 1.657,0.278 4.825,-1.5 5.657,-1.816 l 0.133,-0.141 c 0.691,-3.211 1.238,-6.277 1.515,-6.406 z"
         style="fill:#b92917;fill-opacity:1;fill-rule:evenodd;stroke:none"
         id="path46" />
      <path
         d="m 326.25,26.297 c 0.266,0.691 0.641,1.34 1.109,1.918 0.555,0.547 1.5,1.5 1.387,1.914 0,0.547 -0.277,3.832 -0.277,4.656 0,0.824 -0.41,3 0.144,3.555 0.41,0.547 1.246,2.055 1.246,2.055 0,0 1.11,0.277 1.387,-0.547 0.086,-0.52 0.609,-0.84 1.109,-0.684 0,0 1.665,0.684 1.247,1.098 -0.317,0.461 -0.747,0.84 -1.247,1.093 -0.832,0.547 -8.183,4.5 -8.183,4.5 0,0 -2.496,0.692 -3.188,0.825 -0.687,0.136 -1.664,-0.133 -1.941,0.816 -0.27,1.055 -0.012,2.172 0.691,3 0.418,0.137 2.082,0.82 3.606,0.137 1.941,-0.817 3.75,-3 5.129,-4.246 2.101,-1.649 4.375,-3.063 6.781,-4.215 2.078,-0.817 6.652,-3 8.871,-3.285 2.223,-0.285 2.633,0.824 2.25,1.375 -0.535,0.886 -1.316,1.601 -2.25,2.054 -0.32,0.262 -0.433,0.707 -0.277,1.094 0.851,-0.094 1.687,-0.277 2.5,-0.547 2.078,-0.547 4.851,-0.547 5.129,-1.238 0.277,-0.547 -0.832,-4.785 -3.332,-4.926 -2.11,-0.074 -4.219,0.203 -6.239,0.824 -0.691,0.133 -1.386,-0.414 -0.554,-1.23 0.832,-0.961 2.086,-2.055 2.64,-3.832 0.555,-1.922 1.387,-2.332 0.832,-3.152 -0.699,-0.825 -1.664,-2.465 -2.086,-2.735 -0.418,-0.273 0,-1.238 1.387,-1.785 1.391,-0.684 2.91,-2.191 2.078,-3.144 -0.824,-1.094 -2.488,-0.547 -2.633,-1.5 0,-1.094 -0.832,-1.641 0,-1.918 0.832,-0.278 1.668,-0.551 1.387,-0.954 -0.363,-0.757 -0.781,-1.492 -1.242,-2.199 -0.699,-0.683 -2.25,-0.816 -2.363,-0.133 -0.223,0.938 -0.317,1.907 -0.278,2.871 0,0.692 -0.136,1.649 0.278,2.2 0.554,0.547 0.699,0.816 0.554,1.363 -0.066,0.734 -0.48,1.395 -1.109,1.777 -1.102,0.547 -1.656,0.547 -1.934,1.239 -0.421,0.816 -0.421,2.738 0,3 0.278,0.132 1.387,-0.137 1.11,1.23 -0.422,1.5 -2.086,4.926 -1.946,5.481 0.137,0.683 1.247,0.406 1.247,1.089 0,0.825 0.421,2.196 -0.133,2.602 -0.735,0.488 -1.539,0.859 -2.387,1.094 0,0 -1.934,0.547 -1.387,-1.094 0.418,-1.645 0.832,-4.246 0.973,-4.785 0,-0.547 0.555,-1.238 -0.277,-1.371 -0.696,0 0.136,-1.375 -0.832,-0.961 -0.832,0.277 -1.5,0.687 -1.243,-0.414 0.133,-1.231 1.5,-5.063 1.934,-7.387 0.277,-2.324 -0.555,-2.738 -1.246,-3.285 -0.688,-0.414 -2.774,0.683 -2.774,1.5 0,0.816 1.11,2.047 1.25,3.144 0.145,1.094 -0.14,4.657 0,5.067 -0.078,1.105 -0.218,2.199 -0.418,3.285 -0.136,0.414 -2.496,2.191 -2.25,0.273 0.418,-1.914 0.555,-4.246 0.141,-5.476 -0.777,-1.317 -1.937,-2.363 -3.328,-3 -0.555,0 -1.109,1.363 -1.109,1.914 z m 5.406,21.351 c 0,-1.089 1.391,-1.644 2.364,-1.914 0.832,-0.132 4.156,-1.777 5.683,-1.918 1.5,0 1.5,2.188 1.106,3.149 -0.485,1.113 -1.09,2.168 -1.801,3.148 -0.414,0.684 1.801,1.098 1.801,1.098 0,0 3.472,-0.824 4.859,-0.684 1.246,0.137 1.5,2.047 1.246,3.555 -0.258,1.508 -4.023,0.961 -4.855,0.824 -0.832,-0.133 -0.278,1.367 -0.555,2.192 -0.156,1.66 -0.434,3.308 -0.832,4.925 -0.555,2.071 -1.902,3.844 -3.75,4.93 -1.25,0.547 -3.465,-0.824 -4.02,-1.777 -0.418,-0.961 -1.386,-0.824 -1.808,-2.332 -0.555,-1.5 2.086,-0.547 3.195,0 1.215,0.386 2.512,0.437 3.75,0.14 0.969,-0.41 1.664,-3.832 1.664,-5.07 0.113,-0.996 -0.379,-1.965 -1.25,-2.461 -0.414,-0.133 -2.25,0.684 -3.879,1.5 -1.5,0.82 -2.64,1.781 -3.883,2.051 -1.39,0.277 -3.054,-1.098 -3.332,-2.461 -0.277,-1.367 3.61,-1.5 4.297,-1.645 0.832,-0.132 5.551,-2.332 5.551,-2.332 0.277,-1.086 0.832,-3.964 -0.973,-4.238 -1.113,-0.133 -1.8,1.367 -2.769,1.367 -0.969,0 -1.68,-0.945 -1.824,-2.047 z"
         style="fill:#b92917;fill-opacity:1;fill-rule:evenodd;stroke:none"
         id="path48" />
    </g>
  </g>
</svg>
